<svg xmlns="http://www.w3.org/2000/svg" xmlns:xlink="http://www.w3.org/1999/xlink" version="1.1" width="256" height="256" viewBox="0 0 256 256" xml:space="preserve">
<g style="stroke: none; stroke-width: 0; stroke-dasharray: none; stroke-linecap: butt; stroke-linejoin: miter; stroke-miterlimit: 10; fill: none; fill-rule: nonzero; opacity: 1;" transform="translate(1.4065934065934016 1.4065934065934016) scale(2.81 2.81)">
	<path d="M 89.92 26.517 c -0.104 -0.244 -0.301 -0.437 -0.547 -0.536 l -12.914 -5.197 l 1.874 -9.237 c 0.109 -0.541 -0.24 -1.069 -0.781 -1.179 L 27.447 0.204 c -0.538 -0.111 -1.069 0.24 -1.179 0.781 l -2.064 10.173 H 1 c -0.391 0 -0.746 0.228 -0.909 0.583 c -0.163 0.355 -0.104 0.773 0.151 1.069 c 7.078 8.219 10.125 31.67 8.581 66.035 c -0.012 0.272 0.087 0.539 0.276 0.736 c 0.188 0.197 0.45 0.309 0.723 0.309 h 29.407 l 24.484 9.854 c 0.119 0.048 0.246 0.072 0.373 0.072 c 0.134 0 0.267 -0.026 0.392 -0.08 c 0.244 -0.104 0.438 -0.301 0.536 -0.547 l 24.914 -61.907 C 90.026 27.036 90.024 26.761 89.92 26.517 z M 28.029 2.363 l 48.145 9.767 l -1.84 9.07 c 0 0.001 -0.001 0.001 -0.001 0.002 L 63.305 75.57 l -1.814 -0.369 c 0.779 -21.785 0 -49.007 -7.429 -61.202 c -0.012 -0.02 -0.023 -0.04 -0.035 -0.06 c -0.068 -0.111 -0.135 -0.224 -0.204 -0.332 c 0 0 0 -0.001 0 -0.001 c -0.15 -0.236 -0.305 -0.457 -0.46 -0.678 l 0 0 c -0.023 -0.033 -0.045 -0.068 -0.068 -0.101 c -0.044 -0.063 -0.087 -0.132 -0.132 -0.194 c -0.029 -0.04 -0.057 -0.081 -0.086 -0.121 c -0.001 -0.002 -0.001 -0.003 -0.003 -0.005 c -0.259 -0.352 -0.524 -0.687 -0.796 -1.002 c -0.095 -0.11 -0.209 -0.191 -0.332 -0.249 c -0.029 -0.014 -0.062 -0.014 -0.092 -0.025 c -0.099 -0.035 -0.198 -0.063 -0.302 -0.066 c -0.011 0 -0.021 -0.007 -0.032 -0.007 H 26.245 L 28.029 2.363 z M 3.009 13.158 h 22.012 h 26.015 c 0.087 0.108 0.175 0.216 0.261 0.329 c 0.145 0.19 0.29 0.382 0.431 0.586 l -0.005 0.004 c 0.083 0.119 0.165 0.243 0.248 0.364 c 0.138 0.21 0.275 0.423 0.41 0.646 c 0.005 0.009 0.006 0.018 0.011 0.027 l 0.085 0.141 c 0.102 0.168 0.203 0.336 0.301 0.514 c 0.089 0.16 0.174 0.329 0.261 0.495 c 0.003 0.005 0.003 0.011 0.006 0.017 l 0.069 0.132 c 0.095 0.179 0.188 0.358 0.28 0.546 c 0.001 0.002 0.003 0.003 0.004 0.005 c 0.088 0.181 0.173 0.372 0.259 0.56 c 0.001 0.003 0.001 0.005 0.002 0.008 l 0.078 0.169 c 0.078 0.168 0.155 0.336 0.23 0.51 c 0.104 0.241 0.206 0.49 0.308 0.741 l -0.002 0.001 c 0.08 0.196 0.16 0.394 0.238 0.596 c 0.105 0.273 0.209 0.549 0.311 0.833 l -0.004 0.002 c 0.07 0.192 0.138 0.386 0.206 0.582 c 0.1 0.293 0.201 0.584 0.298 0.888 l -0.006 0.002 c 0.075 0.231 0.148 0.463 0.22 0.7 c 0.084 0.275 0.169 0.545 0.25 0.829 c 0.003 0.011 -0.001 0.021 0.002 0.031 l 0.208 0.739 c 0.081 0.298 0.162 0.594 0.241 0.901 c 0.003 0.012 0.001 0.024 0.004 0.036 l 0.225 0.901 c 0.001 0.003 0.003 0.005 0.004 0.008 c 0.065 0.269 0.129 0.539 0.192 0.814 c 0.002 0.012 0.001 0.023 0.004 0.035 l 0.207 0.931 c 0.001 0.006 0.005 0.011 0.007 0.017 c 0.06 0.28 0.119 0.564 0.177 0.85 c 0.002 0.013 0.001 0.025 0.004 0.038 l 0.189 0.958 c 0.002 0.01 0.009 0.018 0.011 0.028 c 0.055 0.286 0.107 0.579 0.16 0.87 c 0.002 0.016 0.001 0.032 0.004 0.048 c 0.06 0.325 0.117 0.653 0.173 0.983 c 0.002 0.014 0.011 0.025 0.014 0.039 c 0.05 0.294 0.097 0.597 0.145 0.896 c 0.002 0.017 0.001 0.033 0.004 0.05 l 0.157 1.015 c 0.003 0.017 0.012 0.029 0.016 0.046 c 0.044 0.293 0.085 0.597 0.127 0.894 c 0.002 0.027 0.002 0.054 0.006 0.081 c 0.05 0.344 0.097 0.69 0.144 1.039 c 0.002 0.016 0.011 0.028 0.014 0.044 c 0.041 0.305 0.078 0.62 0.117 0.93 c 0.001 0.029 0.002 0.057 0.005 0.086 l 0.127 1.06 c 0.002 0.017 0.012 0.03 0.014 0.046 c 0.036 0.308 0.069 0.625 0.104 0.938 c 0 0 0 0 0 0 c 0 0.036 0.002 0.072 0.006 0.108 l 0.113 1.085 c 0.002 0.017 0.011 0.03 0.014 0.047 c 0.033 0.323 0.063 0.652 0.094 0.979 c 0 0.004 -0.002 0.007 -0.002 0.01 c 0 0.032 0.002 0.064 0.005 0.097 l 0.099 1.087 c 0.001 0.017 0.011 0.03 0.013 0.047 c 0.031 0.359 0.061 0.725 0.091 1.09 c 0.001 0.012 -0.005 0.023 -0.004 0.036 l 0.085 1.108 c 0.001 0.018 0.011 0.032 0.013 0.05 c 0.026 0.352 0.051 0.71 0.075 1.067 c 0 0.007 -0.004 0.012 -0.004 0.019 c 0 0.022 0.001 0.046 0.002 0.069 l 0.072 1.122 c 0.001 0.018 0.011 0.032 0.013 0.05 c 0.023 0.368 0.044 0.741 0.065 1.113 c 0 0.007 -0.004 0.013 -0.004 0.02 c 0 0.019 0 0.037 0.002 0.057 l 0.058 1.113 c 0.001 0.017 0.01 0.032 0.012 0.049 c 0.02 0.389 0.038 0.783 0.056 1.177 c 0 0.008 -0.004 0.014 -0.004 0.022 c 0 0.015 0 0.03 0.001 0.045 l 0.046 1.104 c 0.001 0.017 0.01 0.03 0.011 0.047 c 0.016 0.407 0.031 0.819 0.045 1.231 c 0 0.008 -0.004 0.014 -0.004 0.022 c 0 0.012 0 0.023 0.001 0.035 l 0.033 1.101 c 0.001 0.017 0.01 0.031 0.011 0.048 c 0.013 0.425 0.023 0.856 0.034 1.286 c 0 0.007 -0.004 0.013 -0.004 0.02 c 0 0.009 0 0.017 0 0.025 l 0.023 1.074 c 0 0.015 0.008 0.027 0.009 0.042 c 0.009 0.451 0.015 0.91 0.023 1.367 c 0 0.006 -0.004 0.012 -0.004 0.018 c 0 0.005 0 0.01 0 0.015 l 0.013 1.003 c 0 0 0 0.021 0 0.022 c 0 0.015 0.008 0.027 0.009 0.042 c 0.006 0.479 0.007 0.969 0.011 1.454 c 0 0.005 -0.003 0.009 -0.003 0.014 c 0 0.004 0 0.007 0 0.01 l 0.004 0.979 c 0 0.011 0.006 0.02 0.006 0.031 c 0.002 0.51 0 1.03 -0.001 1.547 c 0 0.003 -0.002 0.005 -0.002 0.008 l -0.004 0.883 c 0 0.001 0 0.002 0 0.003 c 0 0.007 0.004 0.013 0.004 0.02 c -0.003 0.559 -0.008 1.125 -0.013 1.691 c 0 0.001 -0.001 0.002 -0.001 0.003 l -0.008 0.605 c 0 0.003 0 0.007 0 0.01 c 0 0.003 0.002 0.006 0.002 0.01 c -0.014 1.229 -0.033 2.47 -0.061 3.734 c -0.003 0.114 -0.005 0.228 -0.008 0.342 c -0.018 0.794 -0.04 1.595 -0.063 2.402 c -0.009 0.302 -0.019 0.607 -0.029 0.911 c -0.02 0.633 -0.042 1.27 -0.065 1.912 c -0.03 0.801 -0.059 1.603 -0.094 2.416 h -19.96 H 10.867 C 11.688 58.434 11.599 25.962 3.009 13.158 z M 63.531 87.516 l -18.945 -7.625 h 15.754 c 0.535 0 0.976 -0.421 0.999 -0.955 c 0.025 -0.57 0.05 -1.139 0.073 -1.708 l 2.474 0.502 c 0.066 0.013 0.133 0.02 0.199 0.02 c 0.044 0 0.086 -0.013 0.13 -0.019 c 0.034 -0.004 0.066 -0.007 0.099 -0.014 c 0.114 -0.027 0.225 -0.067 0.324 -0.133 c 0.221 -0.146 0.375 -0.375 0.428 -0.635 l 10.989 -54.171 l 11.644 4.686 L 63.531 87.516 z" style="stroke: none; stroke-width: 1; stroke-dasharray: none; stroke-linecap: butt; stroke-linejoin: miter; stroke-miterlimit: 10; fill: rgb(255,255,255); fill-rule: nonzero; opacity: 1;" transform=" matrix(1 0 0 1 0 0) " stroke-linecap="round"/>
</g>
</svg>