<svg xmlns="http://www.w3.org/2000/svg" xmlns:xlink="http://www.w3.org/1999/xlink" version="1.1" width="256" height="256" viewBox="0 0 256 256" xml:space="preserve">
<g style="stroke: none; stroke-width: 0; stroke-dasharray: none; stroke-linecap: butt; stroke-linejoin: miter; stroke-miterlimit: 10; fill: none; fill-rule: nonzero; opacity: 1;" transform="translate(1.4065934065934016 1.4065934065934016) scale(2.81 2.81)">
	<path d="M 78.168 56.373 c -0.154 -0.374 -0.52 -0.617 -0.924 -0.617 H 57.296 V 41.559 c 0 -0.552 -0.447 -1 -1 -1 s -1 0.448 -1 1 v 15.197 c 0 0.553 0.447 1 1 1 H 74.83 L 45 87.586 l -29.831 -29.83 h 18.535 c 0.552 0 1 -0.447 1 -1 V 1 c 0 -0.552 -0.448 -1 -1 -1 s -1 0.448 -1 1 v 54.756 H 12.755 c -0.404 0 -0.769 0.243 -0.924 0.617 s -0.069 0.804 0.217 1.09 l 32.245 32.244 C 44.488 89.902 44.744 90 45 90 s 0.512 -0.098 0.707 -0.293 l 32.244 -32.244 C 78.237 57.177 78.323 56.747 78.168 56.373 z" style="stroke: none; stroke-width: 1; stroke-dasharray: none; stroke-linecap: butt; stroke-linejoin: miter; stroke-miterlimit: 10; fill: rgb(255,255,255); fill-rule: nonzero; opacity: 1;" transform=" matrix(1 0 0 1 0 0) " stroke-linecap="round"/>
	<path d="M 50.803 14.488 c 3.994 0 7.244 -3.25 7.244 -7.244 C 58.047 3.25 54.797 0 50.803 0 s -7.244 3.25 -7.244 7.244 C 43.559 11.238 46.809 14.488 50.803 14.488 z M 50.803 2 c 2.892 0 5.244 2.352 5.244 5.244 s -2.353 5.244 -5.244 5.244 s -5.244 -2.353 -5.244 -5.244 S 47.911 2 50.803 2 z" style="stroke: none; stroke-width: 1; stroke-dasharray: none; stroke-linecap: butt; stroke-linejoin: miter; stroke-miterlimit: 10; fill: rgb(255,255,255); fill-rule: nonzero; opacity: 1;" transform=" matrix(1 0 0 1 0 0) " stroke-linecap="round"/>
	<path d="M 64.987 18.835 c -3.994 0 -7.244 3.25 -7.244 7.244 c 0 3.994 3.25 7.244 7.244 7.244 s 7.244 -3.25 7.244 -7.244 C 72.231 22.085 68.981 18.835 64.987 18.835 z M 64.987 31.323 c -2.892 0 -5.244 -2.352 -5.244 -5.244 s 2.353 -5.244 5.244 -5.244 s 5.244 2.353 5.244 5.244 S 67.879 31.323 64.987 31.323 z" style="stroke: none; stroke-width: 1; stroke-dasharray: none; stroke-linecap: butt; stroke-linejoin: miter; stroke-miterlimit: 10; fill: rgb(255,255,255); fill-rule: nonzero; opacity: 1;" transform=" matrix(1 0 0 1 0 0) " stroke-linecap="round"/>
	<path d="M 43.91 33.084 c 0.188 0.161 0.419 0.239 0.648 0.239 c 0.283 0 0.564 -0.12 0.762 -0.352 L 71.993 1.648 c 0.357 -0.42 0.307 -1.052 -0.113 -1.41 s -1.051 -0.308 -1.41 0.113 L 43.797 31.675 C 43.439 32.095 43.49 32.727 43.91 33.084 z" style="stroke: none; stroke-width: 1; stroke-dasharray: none; stroke-linecap: butt; stroke-linejoin: miter; stroke-miterlimit: 10; fill: rgb(255,255,255); fill-rule: nonzero; opacity: 1;" transform=" matrix(1 0 0 1 0 0) " stroke-linecap="round"/>
</g>
</svg>