<svg xmlns="http://www.w3.org/2000/svg" xmlns:xlink="http://www.w3.org/1999/xlink" version="1.1" width="256" height="256" viewBox="0 0 256 256" xml:space="preserve">
<g style="stroke: none; stroke-width: 0; stroke-dasharray: none; stroke-linecap: butt; stroke-linejoin: miter; stroke-miterlimit: 10; fill: none; fill-rule: nonzero; opacity: 1;" transform="translate(1.4065934065934016 1.4065934065934016) scale(2.81 2.81)">
	<path d="M 45 0 L 45 0 C 20.147 0 0 20.147 0 45 v 0 c 0 24.853 20.147 45 45 45 h 45 V 45 C 90 20.147 69.853 0 45 0 z M 64.345 30.602 l -6.788 31.988 c -0.474 2.273 -1.847 2.817 -3.751 1.767 l -16.677 -12.32 L 56.318 34.72 c 0.842 -0.748 -0.184 -1.112 -1.302 -0.434 l -23.681 14.94 l -10.229 -3.193 c -2.209 -0.676 -2.225 -2.194 0.496 -3.286 l 39.861 -15.37 C 63.282 26.552 65.04 27.816 64.345 30.602 z" style="stroke: none; stroke-width: 1; stroke-dasharray: none; stroke-linecap: butt; stroke-linejoin: miter; stroke-miterlimit: 10; fill: rgb(255,255,255); fill-rule: nonzero; opacity: 1;" transform=" matrix(1 0 0 1 0 0) " stroke-linecap="round"/>
</g>
</svg>